<svg width="21" height="21" viewBox="0 0 21 21" fill="none" xmlns="http://www.w3.org/2000/svg">
<path d="M4.59375 9.84375H17.7188C17.8928 9.84375 18.0597 9.91289 18.1828 10.036C18.3059 10.159 18.375 10.326 18.375 10.5C18.375 10.674 18.3059 10.841 18.1828 10.964C18.0597 11.0871 17.8928 11.1562 17.7188 11.1562H4.59375C4.4197 11.1562 4.25278 11.0871 4.12971 10.964C4.00664 10.841 3.9375 10.674 3.9375 10.5C3.9375 10.326 4.00664 10.159 4.12971 10.036C4.25278 9.91289 4.4197 9.84375 4.59375 9.84375Z" fill="black"/>
<path d="M4.86544 10.5L10.3084 15.9416C10.4316 16.0648 10.5008 16.232 10.5008 16.4062C10.5008 16.5805 10.4316 16.7476 10.3084 16.8708C10.1851 16.9941 10.018 17.0633 9.84375 17.0633C9.66948 17.0633 9.50235 16.9941 9.37912 16.8708L3.47288 10.9646C3.41176 10.9036 3.36327 10.8312 3.33019 10.7515C3.29711 10.6718 3.28008 10.5863 3.28008 10.5C3.28008 10.4137 3.29711 10.3282 3.33019 10.2485C3.36327 10.1687 3.41176 10.0963 3.47288 10.0353L9.37912 4.1291C9.50235 4.00587 9.66948 3.93665 9.84375 3.93665C10.018 3.93665 10.1851 4.00587 10.3084 4.1291C10.4316 4.25233 10.5008 4.41946 10.5008 4.59372C10.5008 4.76799 10.4316 4.93512 10.3084 5.05835L4.86544 10.5Z" fill="black"/>
</svg>
