<svg width="17" height="17" viewBox="0 0 17 17" fill="none" xmlns="http://www.w3.org/2000/svg">
<path d="M3.79297 0.268547C6.90544 -0.0764948 10.0465 -0.0764948 13.159 0.268547C13.7201 0.331645 14.2614 0.512809 14.7475 0.800125C15.2335 1.08744 15.6532 1.4744 15.979 1.93555L7.97598 9.93855L5.50597 7.46855C5.43676 7.39695 5.35397 7.33985 5.26245 7.30059C5.17093 7.26132 5.0725 7.24068 4.97292 7.23986C4.87333 7.23905 4.77458 7.25807 4.68243 7.29582C4.59028 7.33358 4.50656 7.38931 4.43618 7.45976C4.36579 7.53021 4.31014 7.61398 4.27247 7.70617C4.23481 7.79836 4.21588 7.89712 4.21679 7.99671C4.2177 8.09629 4.23844 8.1947 4.27779 8.28618C4.31714 8.37766 4.37431 8.46039 4.44597 8.52955L7.44598 11.5295C7.5866 11.67 7.77722 11.7489 7.97598 11.7489C8.17473 11.7489 8.36535 11.67 8.50597 11.5295L16.622 3.41455C16.644 3.52455 16.662 3.63455 16.675 3.74755C17.045 6.90455 17.045 10.0945 16.675 13.2515C16.46 15.0875 14.985 16.5265 13.159 16.7315C10.0465 17.0766 6.90544 17.0766 3.79297 16.7315C1.96597 16.5265 0.490975 15.0875 0.276975 13.2515C-0.092325 10.0943 -0.092325 6.90478 0.276975 3.74755C0.490975 1.91055 1.96697 0.472547 3.79297 0.267547V0.268547Z" fill="#1A8652"/>
</svg>
