<svg width="24" height="24" viewBox="0 0 24 24" fill="none" xmlns="http://www.w3.org/2000/svg">
<path d="M0.809919 5.805L0.749919 4.5C0.749919 3.70435 1.06599 2.94129 1.6286 2.37868C2.19121 1.81607 2.95427 1.5 3.74992 1.5H9.25792C10.0535 1.50017 10.8164 1.81635 11.3789 2.379L12.6209 3.621C13.1834 4.18365 13.9463 4.49983 14.7419 4.5H20.7149C21.1318 4.49996 21.5441 4.5868 21.9256 4.75499C22.307 4.92317 22.6492 5.16902 22.9304 5.47683C23.2115 5.78465 23.4254 6.14768 23.5584 6.54276C23.6914 6.93785 23.7406 7.35633 23.7029 7.7715L22.7474 18.2715C22.6797 19.0169 22.3358 19.71 21.7832 20.2148C21.2307 20.7197 20.5094 20.9997 19.7609 21H4.23892C3.49048 20.9997 2.76917 20.7197 2.21661 20.2148C1.66406 19.71 1.32015 19.0169 1.25242 18.2715L0.296919 7.7715C0.232998 7.07667 0.41451 6.38141 0.809919 5.8065V5.805ZM3.28492 6C3.07655 5.99999 2.87046 6.04339 2.67979 6.12744C2.48912 6.21149 2.31806 6.33434 2.1775 6.48816C2.03694 6.64199 1.92997 6.82341 1.86341 7.02086C1.79686 7.21832 1.77217 7.42747 1.79092 7.635L2.74642 18.135C2.7801 18.5077 2.95187 18.8543 3.228 19.1069C3.50414 19.3594 3.86471 19.4996 4.23892 19.5H19.7609C20.1351 19.4996 20.4957 19.3594 20.7718 19.1069C21.048 18.8543 21.2197 18.5077 21.2534 18.135L22.2089 7.635C22.2277 7.42747 22.203 7.21832 22.1364 7.02086C22.0699 6.82341 21.9629 6.64199 21.8223 6.48816C21.6818 6.33434 21.5107 6.21149 21.32 6.12744C21.1294 6.04339 20.9233 5.99999 20.7149 6H3.28492ZM10.3199 3.4395C10.1805 3.30002 10.0149 3.18941 9.83268 3.114C9.65045 3.03858 9.45514 2.99984 9.25792 3H3.74992C3.35698 2.99993 2.97971 3.15405 2.69921 3.42922C2.41871 3.70439 2.25738 4.07864 2.24992 4.4715L2.25892 4.68C2.57992 4.563 2.92492 4.5 3.28492 4.5H11.3789L10.3199 3.4395Z" fill="#000000"/>
</svg>
