<svg width="32" height="32" viewBox="0 0 32 32" fill="none" xmlns="http://www.w3.org/2000/svg">
<path d="M23.6191 16H12.9524M23.6191 22.0953H12.9524M23.6191 9.90479H12.9524" stroke="white" stroke-width="1.14286" stroke-linecap="round" stroke-linejoin="round"/>
<path fill-rule="evenodd" clip-rule="evenodd" d="M8.37946 11.4286C9.14137 11.4286 9.90327 10.6667 9.90327 9.90479C9.90327 9.14289 9.14137 8.38098 8.37946 8.38098C7.61756 8.38098 6.85718 9.14289 6.85718 9.90479C6.85718 10.6667 7.61756 11.4286 8.37946 11.4286ZM8.37946 17.5238C9.14137 17.5238 9.90327 16.7619 9.90327 16C9.90327 15.2381 9.14137 14.4762 8.37946 14.4762C7.61756 14.4762 6.85718 15.2381 6.85718 16C6.85718 16.7619 7.61756 17.5238 8.37946 17.5238ZM8.37946 23.6191C9.14137 23.6191 9.90327 22.8572 9.90327 22.0953C9.90327 21.3334 9.14137 20.5715 8.37946 20.5715C7.61756 20.5715 6.85718 21.3334 6.85718 22.0953C6.85718 22.8572 7.61756 23.6191 8.37946 23.6191Z" fill="white"/>
</svg>
