<svg width="21" height="20" viewBox="0 0 21 20" fill="none" xmlns="http://www.w3.org/2000/svg">
<path d="M18.8445 15.3097H17.1968C17.0843 15.3097 16.9788 15.3566 16.9085 15.4392C16.7445 15.6291 16.5687 15.8122 16.3835 15.9864C15.6262 16.7088 14.7292 17.2844 13.7421 17.6816C12.7194 18.0932 11.6202 18.3044 10.5101 18.3025C9.38742 18.3025 8.29992 18.0925 7.27805 17.6816C6.29093 17.2844 5.39392 16.7088 4.63664 15.9864C3.87801 15.2665 3.27309 14.4132 2.85539 13.4738C2.4218 12.5001 2.20383 11.466 2.20383 10.3962C2.20383 9.32639 2.42414 8.29232 2.85539 7.31855C3.27258 6.37828 3.87258 5.53182 4.63664 4.80596C5.4007 4.0801 6.28899 3.50834 7.27805 3.1108C8.29992 2.69985 9.38742 2.48991 10.5101 2.48991C11.6327 2.48991 12.7202 2.69762 13.7421 3.1108C14.7312 3.50834 15.6195 4.0801 16.3835 4.80596C16.5687 4.9824 16.7421 5.16554 16.9085 5.35314C16.9788 5.43578 17.0866 5.48268 17.1968 5.48268H18.8445C18.9921 5.48268 19.0835 5.32634 19.0015 5.20797C17.2038 2.54574 14.0585 0.783581 10.4843 0.792514C4.86867 0.805915 0.366329 5.1499 0.422579 10.4945C0.478829 15.7542 4.97414 19.9999 10.5101 19.9999C14.0749 19.9999 17.2062 18.2399 19.0015 15.5844C19.0812 15.466 18.9921 15.3097 18.8445 15.3097ZM20.928 10.2555L17.6023 7.75406C17.478 7.66026 17.2976 7.74513 17.2976 7.89477V9.59216H9.9382C9.83508 9.59216 9.7507 9.67257 9.7507 9.77084V11.0215C9.7507 11.1198 9.83508 11.2002 9.9382 11.2002H17.2976V12.8976C17.2976 13.0473 17.4804 13.1321 17.6023 13.0383L20.928 10.5369C20.9505 10.5202 20.9686 10.4988 20.981 10.4745C20.9935 10.4501 21 10.4233 21 10.3962C21 10.3691 20.9935 10.3423 20.981 10.3179C20.9686 10.2936 20.9505 10.2722 20.928 10.2555Z" fill="black"/>
</svg>
