<svg width="24" height="24" viewBox="0 0 24 24" fill="none" xmlns="http://www.w3.org/2000/svg">
<g clip-path="url(#clip0_530_4396)">
<path d="M13.93 9.58143C13.8153 9.25633 13.6025 8.97484 13.3211 8.77577C13.0396 8.5767 12.7033 8.46987 12.3586 8.47H11.0686C10.7006 8.46807 10.3449 8.60268 10.0704 8.84779C9.79583 9.0929 9.62194 9.4311 9.58231 9.79699C9.54268 10.1629 9.64014 10.5305 9.85583 10.8287C10.0715 11.1269 10.3901 11.3345 10.75 11.4114L12.7143 11.84C13.116 11.9279 13.4709 12.1612 13.7111 12.4949C13.9512 12.8287 14.0595 13.2394 14.0152 13.6482C13.9709 14.0569 13.7771 14.4349 13.4711 14.7095C13.165 14.9841 12.7683 15.1359 12.3572 15.1357H11.2472C10.5215 15.1357 9.90431 14.6729 9.67574 14.0257M11.8029 8.47V6.80286M11.8029 16.8029V15.1371M4.85431 21.2829V17.7114H8.42574" stroke="#000000" stroke-linecap="round" stroke-linejoin="round"/>
<path d="M21.1257 10.2914C21.505 12.3131 21.2022 14.4036 20.2649 16.2346C19.3276 18.0657 17.8088 19.5336 15.947 20.4082C14.0851 21.2827 11.9856 21.5142 9.97795 21.0665C7.97028 20.6187 6.1681 19.517 4.85429 17.9343M2.87429 13.7086C2.49504 11.6868 2.79783 9.59639 3.73513 7.76535C4.67243 5.93432 6.19119 4.46633 8.05303 3.59181C9.91486 2.71729 12.0144 2.48573 14.0221 2.93348C16.0297 3.38123 17.8319 4.48294 19.1457 6.0657" stroke="#1E3B78" stroke-linecap="round" stroke-linejoin="round"/>
<path d="M19.1457 2.71716V6.28859H15.5743" stroke="#1E3B78" stroke-linecap="round" stroke-linejoin="round"/>
</g>
<defs>
<clipPath id="clip0_530_4396">
<rect width="20" height="20" fill="white" transform="translate(2 2)"/>
</clipPath>
</defs>
</svg>
