<svg width="50" height="31" viewBox="0 0 50 31" fill="none" xmlns="http://www.w3.org/2000/svg">
<g clip-path="url(#clip0_1211_2606)">
<path fill-rule="evenodd" clip-rule="evenodd" d="M18.0531 27.1039H31.4352V3.24414H18.0531V27.1039Z" fill="#FF5F00"/>
<path fill-rule="evenodd" clip-rule="evenodd" d="M18.9029 15.1742C18.9029 10.3336 21.1872 6.02247 24.7443 3.24433C22.1427 1.21225 18.8604 0 15.2927 0C6.84668 0 0.00012207 6.79382 0.00012207 15.1742C0.00012207 23.5545 6.84668 30.3484 15.2927 30.3484C18.8604 30.3484 22.1427 29.1361 24.7443 27.104C21.1872 24.3255 18.9029 20.0147 18.9029 15.1742Z" fill="#EB001B"/>
<path fill-rule="evenodd" clip-rule="evenodd" d="M49.011 24.5769V23.988H48.8559L48.6779 24.3931L48.4995 23.988H48.3444V24.5769H48.4536V24.1326L48.621 24.5158H48.7344L48.9018 24.1318V24.5769H49.011ZM48.0292 24.5769V24.0884H48.228V23.9889H47.7225V24.0884H47.9208V24.5769H48.0292ZM49.4885 15.1739C49.4885 23.5543 42.6415 30.3481 34.1959 30.3481C30.6282 30.3481 27.3455 29.1359 24.7443 27.1038C28.3014 24.3257 30.5857 20.0145 30.5857 15.1739C30.5857 10.3338 28.3014 6.02264 24.7443 3.24408C27.3455 1.212 30.6282 -0.000244141 34.1959 -0.000244141C42.6415 -0.000244141 49.4885 6.79358 49.4885 15.1739Z" fill="#F79E1B"/>
</g>
<defs>
<clipPath id="clip0_1211_2606">
<rect width="50" height="30.3922" fill="white"/>
</clipPath>
</defs>
</svg>
