<svg width="61" height="81" viewBox="0 0 61 81" fill="none" xmlns="http://www.w3.org/2000/svg">
<path opacity="0.783" fill-rule="evenodd" clip-rule="evenodd" d="M29.0286 0.5C30.0286 0.5 31.0286 0.5 32.0286 0.5C33.3283 1.60101 33.8283 2.93434 33.5286 4.5C23.7943 13.5646 14.7943 23.2313 6.52856 33.5C5.31589 36.7675 4.98256 40.1008 5.52856 43.5C6.89133 48.8933 9.22466 53.56 12.5286 57.5C11.3954 59.2112 9.89538 59.7112 8.02856 59C4.16995 55.1025 1.50329 50.6025 0.0285645 45.5C0.0285645 42.5 0.0285645 39.5 0.0285645 36.5C1.16652 32.284 2.99984 28.284 5.52856 24.5C13.5644 16.6316 21.3977 8.63162 29.0286 0.5Z" fill="#22C0C1"/>
<path opacity="0.81" fill-rule="evenodd" clip-rule="evenodd" d="M30.0286 13.5C31.9127 13.7118 33.246 14.7118 34.0286 16.5C28.3768 22.6521 22.5435 28.6521 16.5286 34.5C12.7474 45.3804 16.5807 50.5471 28.0286 50C31.4932 47.5374 34.6598 44.7041 37.5286 41.5C38.0914 40.2752 37.7581 39.2752 36.5286 38.5C33.3856 42.4872 29.5522 45.4872 25.0286 47.5C18.1422 45.9886 16.3089 41.9886 19.5286 35.5C26.1621 26.0752 34.6621 23.5752 45.0286 28C52.7788 35.0874 53.6121 42.9208 47.5286 51.5C42.1806 57.015 36.6806 62.3483 31.0286 67.5C29.5472 66.5197 28.2139 65.353 27.0286 64C32.8619 58.1667 38.6953 52.3333 44.5286 46.5C48.3187 36.2259 44.8187 31.0593 34.0286 31C29.9496 33.0751 26.4496 35.9084 23.5286 39.5C22.9658 40.7248 23.2991 41.7248 24.5286 42.5C27.7135 38.3022 31.7135 35.3022 36.5286 33.5C42.9679 35.3355 44.6345 39.3355 41.5286 45.5C38.1916 49.8469 34.0249 53.0136 29.0286 55C17.5711 56.6957 11.2378 51.8623 10.0286 40.5C9.98119 37.7052 10.4812 35.0385 11.5286 32.5C17.898 26.2981 24.0647 19.9648 30.0286 13.5Z" fill="#00468F"/>
<path opacity="0.826" fill-rule="evenodd" clip-rule="evenodd" d="M32.0286 80.5C31.0286 80.5 30.0286 80.5 29.0286 80.5C28.5758 79.5416 27.9091 78.7083 27.0286 78C34.8619 70.1667 42.6953 62.3333 50.5286 54.5C58.1827 44.2387 57.6827 34.4054 49.0286 25C50.7883 20.5476 52.955 20.381 55.5286 24.5C62.4357 34.5888 62.769 44.9222 56.5286 55.5C48.1596 63.7017 39.9929 72.035 32.0286 80.5Z" fill="#22C0C1"/>
</svg>
