<svg width="144" height="144" viewBox="0 0 144 144" fill="none" xmlns="http://www.w3.org/2000/svg">
<circle cx="72" cy="72" r="72" fill="#1A8652"/>
<path d="M105.748 51.6676C106.135 51.3151 106.444 50.89 106.659 50.4177C106.874 49.9453 106.99 49.4355 106.999 48.9185C107.009 48.4014 106.912 47.8879 106.714 47.4084C106.516 46.929 106.221 46.4934 105.848 46.1278C105.474 45.7622 105.029 45.4739 104.54 45.2802C104.05 45.0866 103.525 44.9915 102.997 45.0006C102.469 45.0097 101.948 45.1229 101.466 45.3333C100.983 45.5438 100.549 45.8472 100.189 46.2255L55.7658 89.7108L42.8114 77.0297C42.4512 76.6514 42.017 76.348 41.5345 76.1375C41.052 75.9271 40.5311 75.8139 40.0029 75.8048C39.4748 75.7957 38.9501 75.8908 38.4604 76.0844C37.9706 76.2781 37.5256 76.5663 37.1521 76.932C36.7786 77.2976 36.4841 77.7332 36.2863 78.2126C36.0884 78.6921 35.9913 79.2056 36.0006 79.7226C36.0099 80.2397 36.1255 80.7495 36.3405 81.2219C36.5555 81.6942 36.8655 82.1193 37.252 82.4718L52.9861 97.8739C53.7237 98.595 54.7234 99 55.7658 99C56.8082 99 57.808 98.595 58.5455 97.8739L105.748 51.6676Z" fill="white"/>
</svg>
