<svg width="168" height="163" viewBox="0 0 168 163" fill="none" xmlns="http://www.w3.org/2000/svg">
<path d="M167.206 81.3084C167.22 92.1265 165.008 102.838 160.699 112.812C156.39 122.785 150.072 131.819 142.117 139.381L141.824 139.658C140.554 140.856 139.245 142.016 137.897 143.137C122.77 155.729 103.514 162.65 83.6032 162.65C63.6919 162.65 44.4361 155.729 29.3096 143.137C27.961 142.017 26.6519 140.857 25.3823 139.658L25.0889 139.381C17.1343 131.819 10.8164 122.785 6.50756 112.812C2.19872 102.838 -0.0139045 92.1265 6.57438e-05 81.3084C6.57438e-05 36.4023 37.4302 0 83.6023 0C129.774 0 167.206 36.4023 167.206 81.3084Z" fill="#F2F6FC"/>
<path d="M141.623 139.73C140.358 140.924 139.053 142.08 137.709 143.198C122.635 155.751 103.446 162.65 83.6032 162.65C63.7607 162.65 44.5714 155.751 29.4972 143.198C28.1533 142.082 26.8487 140.926 25.5835 139.73C27.1612 134.974 29.8858 130.654 33.5299 127.131C37.1739 123.608 41.6315 120.984 46.5303 119.479L71.1911 111.91V107.953C68.1037 106.167 65.3396 104.124 63.0604 102.628C60.9669 101.25 59.184 99.4714 57.8204 97.4009C56.4569 95.3304 55.5413 93.0114 55.1296 90.5853L53.8147 82.9351C52.1013 82.9379 50.4393 82.3658 49.1091 81.3152C47.7789 80.2646 46.8618 78.7998 46.5126 77.168C46.1633 75.5361 46.4032 73.837 47.1919 72.3572C47.9805 70.8774 49.2696 69.7075 50.8417 69.0447C48.5219 63.7419 46.8411 58.1955 45.833 52.5165C45.1882 48.8999 44.825 45.0854 45.9165 41.5978C47.008 38.1102 49.8937 35.0501 53.3007 34.9901L53.7475 35.0201C55.8959 31.7533 59.2575 29.6014 62.7844 28.3576C66.3112 27.1137 70.0324 26.6897 73.7227 26.2781C75.1647 26.1155 76.614 25.953 78.0668 25.8116C84.7664 25.1844 92.0617 25.0307 98.912 26.8876C105.762 28.7445 112.384 32.907 115.872 39.543C118.644 44.808 119.205 51.1596 118.508 57.1684C118.046 61.1561 117.064 65.0377 115.912 68.8698C117.566 69.4445 118.958 70.5692 119.841 72.0452C120.725 73.5212 121.044 75.2536 120.743 76.9364C120.441 78.6192 119.537 80.1441 118.192 81.2417C116.847 82.3394 115.146 82.9392 113.39 82.9351L112.073 90.5888C111.662 93.0146 110.747 95.3335 109.384 97.4039C108.021 99.4743 106.239 101.253 104.146 102.631C101.865 104.128 99.1045 106.165 96.0135 107.956V111.91L120.672 119.484C125.572 120.988 130.03 123.611 133.674 127.133C137.319 130.655 140.044 134.974 141.623 139.73Z" fill="#0378A6"/>
</svg>
