<svg width="163" height="163" viewBox="0 0 163 163" fill="none" xmlns="http://www.w3.org/2000/svg">
<path d="M162.234 81.3247C162.248 92.1451 160.108 102.859 155.94 112.834C151.772 122.81 145.662 131.846 137.968 139.409C136.65 140.709 135.289 141.961 133.885 143.166C133.326 143.647 132.761 144.119 132.189 144.584C132.13 144.633 132.071 144.679 132.013 144.726C130.01 146.351 127.929 147.877 125.772 149.306C112.582 158.012 97.1496 162.65 81.3732 162.65C65.5968 162.65 50.1645 158.012 36.9749 149.306C34.8173 147.881 32.7362 146.354 30.7315 144.726C30.6715 144.679 30.6134 144.633 30.5552 144.584C29.9829 144.119 29.4177 143.647 28.8595 143.166C27.4564 141.96 26.0956 140.708 24.7771 139.409C17.0831 131.846 10.9723 122.81 6.8046 112.834C2.63695 102.859 0.496805 92.1451 0.510317 81.3247C0.510317 36.4096 36.714 0 81.375 0C126.036 0 162.234 36.4096 162.234 81.3247Z" fill="#F2F6FC"/>
<path d="M132.083 144.672C130.076 146.302 127.993 147.833 125.832 149.266C112.625 157.998 97.1714 162.65 81.3734 162.65C65.5754 162.65 50.122 157.998 36.9143 149.266C34.7538 147.837 32.6698 146.305 30.6624 144.672C31.279 138.817 33.5011 133.25 37.0797 128.595C40.6584 123.939 45.4525 120.379 50.9256 118.312L69.2578 111.389V104.609C67.9414 103.772 66.6952 102.828 65.5317 101.786C50.269 104.051 41.5812 95.8754 41.5812 95.8754C41.5812 95.8754 47.4395 88.8309 47.4466 69.9162V57.678C47.4466 39.1509 62.8752 23.5043 81.3734 23.5043C99.8715 23.5043 115.3 39.1509 115.3 57.678V69.9162C115.3 88.8255 121.164 95.8754 121.164 95.8754C121.164 95.8754 112.421 104.09 97.1586 101.827C96.0109 102.85 94.7838 103.778 93.4889 104.604V111.389L111.821 118.312C117.294 120.38 122.087 123.94 125.666 128.595C129.244 133.251 131.466 138.817 132.083 144.672Z" fill="#0378A6"/>
</svg>
