<svg width="37" height="10" viewBox="0 0 37 10" fill="none" xmlns="http://www.w3.org/2000/svg">
<path d="M15.9715 9.85873H13.0713L14.8853 0.37207H17.7854L15.9715 9.85873Z" fill="white"/>
<path d="M26.4851 0.603836C25.9131 0.411887 25.0057 0.199951 23.8838 0.199951C21.0197 0.199951 19.0029 1.49168 18.9905 3.33847C18.9667 4.70103 20.4345 5.45783 21.5323 5.91215C22.6544 6.37639 23.0358 6.67941 23.0358 7.09322C23.0244 7.72876 22.1291 8.02171 21.2941 8.02171C20.1362 8.02171 19.5158 7.87067 18.5729 7.51709L18.191 7.36552L17.7852 9.49507C18.4654 9.75717 19.7186 9.98976 21.0197 9.99996C24.0629 9.99996 26.0441 8.72821 26.0675 6.76016C26.0791 5.68023 25.3041 4.85274 23.6331 4.17656C22.6187 3.74249 21.9975 3.44981 21.9975 3.00568C22.0094 2.60193 22.5229 2.18839 23.668 2.18839C24.6108 2.16813 25.3036 2.35982 25.8284 2.55163L26.0907 2.65237L26.4851 0.603836Z" fill="white"/>
<path d="M30.3398 6.49794C30.5787 5.95295 31.4977 3.84365 31.4977 3.84365C31.4857 3.86391 31.7361 3.2886 31.8793 2.93542L32.082 3.75284C32.082 3.75284 32.6312 6.02364 32.7505 6.49794C32.2972 6.49794 30.9127 6.49794 30.3398 6.49794ZM33.9198 0.37207H31.6765C30.9847 0.37207 30.4591 0.543497 30.1606 1.15918L25.8527 9.8586H28.8958C28.8958 9.8586 29.3968 8.68772 29.5045 8.43554C29.8383 8.43554 32.7987 8.43554 33.2282 8.43554C33.3114 8.7686 33.5742 9.8586 33.5742 9.8586H36.2596L33.9198 0.37207Z" fill="white"/>
<path d="M10.6489 0.37207L7.80857 6.84107L7.49819 5.52908C6.97308 4.01521 5.32622 2.37043 3.4884 1.5526L6.09002 9.84867H9.15695L13.7156 0.37207H10.6489Z" fill="white"/>
<path d="M5.17111 0.37207H0.504891L0.457153 0.563751C4.0971 1.351 6.50776 3.24863 7.4982 5.52948L6.48382 1.16951C6.31681 0.563617 5.8036 0.392057 5.17111 0.37207Z" fill="white"/>
</svg>
